# xmcd
#
# Track frame offsets:
#	150
#	19107
#	40600
#	61252
#	90427
#	106807
#	127871
#	146691
#	161431
#
# Disc length: 2444 seconds
#
# Revision: 1
# Processed by: cddbd v1.5.2PL0 Copyright (c) Steve Scherf et al.
# Submitted via: audiograbber 1.83.01
#
DISCID=63098a09
DTITLE=The Gary Harvey Band - Ghost Dance
DYEAR=2014
DGENRE=
TTITLE0=The Gary Harvey Band - Mr Healy
TTITLE1=The Gary Harvey Band - It Ain't Pretty
TTITLE2=The Gary Harvey Band (feat. Erica Sunshine Lee) - Don't Lie To Me
TTITLE3=The Gary Harvey Band - Ground Zero
TTITLE4=The Gary Harvey Band - Promised Land
TTITLE5=The Gary Harvey Band - Nuthin' But The Blues
TTITLE6=The Gary Harvey Band - Tired Of Thinkin'
TTITLE7=The Gary Harvey Band - Boss Mama
TTITLE8=The Gary Harvey Band - Kym Song
EXTD="Inspired by my travels in the USA, and dedicated to my daughter Kym and S
EXTD=teve 'Mr' Healy."\nwww.GaryHarvey.co.nz
EXTT0=
EXTT1=
EXTT2=
EXTT3=
EXTT4=
EXTT5=
EXTT6=
EXTT7=
EXTT8=
PLAYORDER=
